<svg width="68" height="72" viewBox="0 0 68 72" xmlns="http://www.w3.org/2000/svg" xmlns:xlink="http://www.w3.org/1999/xlink"><defs><rect id="a" width="67.407" height="70.675" rx="8"/></defs><g fill="none" fill-rule="evenodd"><g transform="translate(0 .333)" opacity=".8"><mask id="b" fill="#fff"><use xlink:href="#a"/></mask><use fill="#FEA154" xlink:href="#a"/><path d="M18.028 32.253l13.295-12.405 8.372 4.535 9.582-3.708 28.698 25.193c-8.454 12.794-13.314 19.975-14.579 21.541-1.264 1.566-4.858 4.081-10.781 7.546L19.742 52.1l6.017-2.007 3.86-7.09-11.591-10.751z" fill="#FD731C" mask="url(#b)"/></g><path d="M46.591 18.59H21.405c-1.25 0-2.272 1.04-2.272 2.31v29.867c0 1.27 1.022 2.31 2.272 2.31h25.19c1.25 0 2.272-1.04 2.272-2.31V20.9c-.003-1.27-1.026-2.31-2.276-2.31zm-4.124 24.796c0 .72-.58 1.309-1.288 1.309H26.764c-.708 0-1.288-.59-1.288-1.31 0-.72.58-1.308 1.288-1.308H41.18c.708 0 1.288.589 1.288 1.309zm.026-7.578c0 .72-.58 1.31-1.287 1.31H26.79c-.709 0-1.288-.59-1.288-1.31 0-.72.58-1.309 1.288-1.309h14.415c.708 0 1.287.59 1.287 1.31zm0-7.546c0 .72-.58 1.309-1.287 1.309H26.79c-.709 0-1.288-.59-1.288-1.31 0-.72.58-1.308 1.288-1.308h14.415c.708 0 1.287.589 1.287 1.309z" fill="#FFF" fill-rule="nonzero"/></g></svg>