<svg width="36" height="36" viewBox="0 0 36 36" xmlns="http://www.w3.org/2000/svg" xmlns:xlink="http://www.w3.org/1999/xlink"><defs><rect id="a" width="36" height="36" rx="3"/></defs><g fill="none" fill-rule="evenodd"><g><mask id="b" fill="#fff"><use xlink:href="#a"/></mask><use fill="#F3F1F3" xlink:href="#a"/><path fill="#BFBFBF" opacity=".405" mask="url(#b)" d="M29.265 28.506l9.69 10.45-19.156 5.189L6.678 29.393z"/><path fill="#BFBFBF" opacity=".405" mask="url(#b)" d="M6.678 20.316l15.34 16.967h16.936L36.851 30 28.55 19.73z"/></g><path d="M8 11c.319-.373.638-.72.957-1.042.248-.289.509-.56.784-.814.274-.254.482-.44.624-.56.195-.152.403-.287.625-.406.221-.119.518-.178.89-.178h11.48c.23 0 .495.047.797.14.3.093.593.284.877.572.141.17.327.381.558.635l.664.738c.248.288.496.593.744.915H8zm22 7.953c0 .574-.186 1.06-.558 1.454-.372.395-.904.593-1.595.593H8.206c-.673 0-1.21-.198-1.608-.593A1.968 1.968 0 0 1 6 18.953V15.1c0-.575.177-1.068.532-1.481.354-.413.93-.62 1.727-.62h19.562c.815 0 1.382.207 1.7.62.32.413.479.906.479 1.481v3.852zM20 16.49c0-.177-.058-.303-.173-.378-.116-.075-.271-.112-.467-.112h-2.693a.768.768 0 0 0-.48.143.425.425 0 0 0-.187.347c.018.177.084.306.2.388.116.081.271.122.467.122h2.693c.409 0 .622-.17.64-.51zm10 11.435c0 .575-.217 1.068-.651 1.481-.434.413-.988.61-1.661.593H8.206c-.567 0-1.076-.202-1.528-.606C6.226 28.989 6 28.428 6 27.71V24.1c0-.592.182-1.09.545-1.494.363-.404.943-.606 1.74-.606h19.509c.744 0 1.298.202 1.661.606.363.404.545.893.545 1.468v3.851zM20 26.5a.447.447 0 0 0-.173-.354c-.116-.097-.271-.146-.467-.146h-2.693a.757.757 0 0 0-.48.146.436.436 0 0 0-.187.354c0 .139.062.257.187.354a.757.757 0 0 0 .48.146h2.693c.196 0 .351-.049.467-.146A.447.447 0 0 0 20 26.5z" fill="#098" fill-rule="nonzero"/></g></svg>