<svg width="68" height="72" viewBox="0 0 68 72" xmlns="http://www.w3.org/2000/svg" xmlns:xlink="http://www.w3.org/1999/xlink"><defs><rect id="a" width="67.407" height="70.675" rx="8"/></defs><g fill="none" fill-rule="evenodd"><g transform="translate(0 .667)" opacity=".8"><mask id="b" fill="#fff"><use xlink:href="#a"/></mask><use fill="#09BAA7" xlink:href="#a"/><path d="M18.028 32.253l13.295-12.405 8.372 4.535 9.582-3.708 28.698 25.193c-8.454 12.794-13.314 19.975-14.579 21.541-1.264 1.566-4.858 4.081-10.781 7.546L19.742 52.1l6.017-2.007 3.86-7.09-11.591-10.751z" fill="#098" mask="url(#b)"/></g><path d="M34 17.205c-10.193.019-18.463 8.493-18.463 18.962s8.27 18.943 18.445 18.943c10.193 0 18.444-8.474 18.463-18.943.018-10.45-8.251-18.943-18.445-18.962zm10.582 14.04L32.631 43.502a1.639 1.639 0 0 1-2.368.038l-.037-.038-6.863-7.05a1.777 1.777 0 0 1 0-2.47 1.666 1.666 0 0 1 2.405 0l5.698 5.853 10.748-11.001a1.682 1.682 0 0 1 2.405-.02c.666.685.685 1.787.019 2.47l-.019.02-.037-.057z" fill="#FFF" fill-rule="nonzero"/></g></svg>