<svg width="68" height="71" viewBox="0 0 68 71" xmlns="http://www.w3.org/2000/svg" xmlns:xlink="http://www.w3.org/1999/xlink"><defs><rect id="a" y=".017" width="68" height="70.014" rx="8"/></defs><g fill="none" fill-rule="evenodd"><g opacity=".8"><mask id="b" fill="#fff"><use xlink:href="#a"/></mask><use fill="#039887" xlink:href="#a"/><path d="M25.909 46.062l13.255-20.467 1.372-1.758V18.76l45.138 31.078C77.245 61.761 72.4 68.451 71.14 69.911c-1.261 1.459-4.844 3.803-10.75 7.03l-36.215-23.23 9.442.066 3.847-6.606-11.555-1.109z" fill="#03625B" mask="url(#b)"/></g><path d="M33.442 36.03c4.496 0 8.138-3.927 8.138-8.752 0-4.836-3.642-8.753-8.138-8.753s-8.138 3.917-8.138 8.753c0 4.825 3.642 8.752 8.138 8.752zM34 40.37c-5.793 0-17.392 2.916-17.392 8.737v4.368h34.784v-4.368c0-5.82-11.599-8.737-17.392-8.737z" fill="#FFF" fill-rule="nonzero"/></g></svg>