<svg width="68" height="71" viewBox="0 0 68 71" xmlns="http://www.w3.org/2000/svg" xmlns:xlink="http://www.w3.org/1999/xlink"><defs><rect id="a" y=".017" width="68" height="70.014" rx="8"/></defs><g fill="none" fill-rule="evenodd"><g opacity=".85"><mask id="b" fill="#fff"><use xlink:href="#a"/></mask><use fill="#FA8C16" xlink:href="#a"/><path d="M22.052 35.298l13.296-12.405 8.371 4.535-1.94-8.928 28.698 25.693c-.773 15.941-1.791 24.695-3.056 26.261-1.265 1.567-4.858 4.082-10.782 7.546L23.767 55.146l6.017-2.006 3.86-7.09-11.592-10.752z" fill="#EC7A00" mask="url(#b)"/></g><path d="M17.568 50.82h32.04a1.972 1.972 0 0 1 0 3.944h-32.04a1.972 1.972 0 1 1 0-3.944zM33.54 16.796c-7.499 0-13.635 5.753-13.635 12.784V48.05c0 .153.019.301.024.453h27.223c.005-.152.024-.3.024-.453V29.58c0-7.031-6.136-12.784-13.636-12.784zm-.97 26.254v-7.574h-7.266l8.894-10.04v6.4h7.58L32.57 43.05z" fill="#FFF" fill-rule="nonzero"/></g></svg>